<svg width="16" height="16" viewBox="0 0 16 16" fill="none" xmlns="http://www.w3.org/2000/svg">
  <path d="M8 .198C3.58.198 0 3.778 0 8.198c0 3.535 2.29 6.531 5.466 7.594.4.074.546-.173.546-.385v-1.346c-2.225.485-2.695-1.074-2.695-1.074-.364-.925-.89-1.17-.89-1.17-.727-.497.056-.487.056-.487.803.056 1.225.824 1.225.824.715 1.223 1.872.87 2.33.665.072-.518.28-.87.51-1.07-1.777-.2-3.644-.888-3.644-3.955 0-.874.312-1.59.823-2.15-.082-.202-.356-1.017.078-2.122 0 0 .67-.214 2.2.82a7.68 7.68 0 0 1 2.004-.27c.68.003 1.364.092 2.004.27 1.53-1.034 2.2-.82 2.2-.82.434 1.105.16 1.92.08 2.122.512.56.822 1.276.822 2.15 0 3.074-1.87 3.752-3.65 3.948.287.247.54.735.54 1.482v2.198c0 .212.145.462.552.384A8.002 8.002 0 0 0 16 8.198c0-4.42-3.58-8-8-8Z" fill="white"/>
</svg>
